Coordinates
version=1
nRows=43
nColumns=12
inDegrees=yes

Units are S.I. units (second, meters, Newtons, ...)
Angles are in degrees

endheader
time	SC_y	SC_z	SC_x	AC_y	AC_z	AC_x	GH_y	GH_z	GH_yy	EL_x	PS_y
       0.0              -45.16          5.171          6.898          41.41          -14.0         -17.27         -104.2          7.609           49.8          116.7          9.433
   0.04755              -45.16          5.171          6.905          41.41          -14.0         -17.27         -104.2          7.613          49.76          116.7          9.441
   0.09509              -45.16           5.17          6.914          41.41          -14.0         -17.26         -104.2          7.617          49.73          116.7           9.45
    0.1426              -45.15           5.17          6.922          41.41          -14.0         -17.26         -104.2          7.621          49.69          116.7           9.46
    0.1902              -45.15          5.169          6.931          41.41          -14.0         -17.25         -104.2          7.625          49.65          116.7          9.471
    0.2377              -45.14          5.169          6.941          41.41          -14.0         -17.24         -104.2           7.63          49.61          116.6          9.482
    0.2853              -45.14          5.168          6.952          41.41          -14.0         -17.24         -104.2          7.635          49.57          116.6          9.494
    0.3328              -45.14          5.168          6.963          41.41          -14.0         -17.23         -104.2           7.64          49.52          116.6          9.507
    0.3804              -45.13          5.167          6.975          41.41          -14.0         -17.22         -104.2          7.646          49.47          116.6           9.52
    0.4279              -45.13          5.166          6.988          41.41          -14.0         -17.21         -104.2          7.652          49.41          116.6          9.535
    0.4755              -45.12          5.166          7.002          41.41          -14.0          -17.2         -104.1          7.659          49.35          116.6           9.55
     0.523              -45.12          5.165          7.016          41.41          -14.0         -17.19         -104.1          7.666          49.29          116.5          9.567
    0.5706              -45.11          5.164          7.032          41.41          -14.0         -17.18         -104.1          7.674          49.22          116.5          9.586
    0.6181              -45.11          5.163           7.05          41.41          -14.0         -17.17         -104.1          7.682          49.15          116.5          9.605
    0.6657               -45.1          5.162          7.068          41.41         -13.99         -17.16         -104.1          7.692          49.06          116.5          9.627
    0.7132              -45.09          5.161          7.089          41.41         -13.99         -17.15         -104.1          7.701          48.98          116.4           9.65
    0.7607              -45.08           5.16          7.111           41.4         -13.99         -17.13         -104.1          7.712          48.88          116.4          9.675
    0.8083              -45.07          5.159          7.135           41.4         -13.99         -17.12         -104.0          7.724          48.78          116.4          9.702
    0.8558              -45.06          5.157          7.161           41.4         -13.99          -17.1         -104.0          7.736          48.67          116.3          9.732
    0.9034              -45.05          5.156           7.19           41.4         -13.99         -17.08         -104.0           7.75          48.54          116.3          9.765
    0.9509              -45.04          5.154          7.222           41.4         -13.99         -17.06         -104.0          7.766          48.41          116.2          9.801
    0.9985              -45.03          5.152          7.256           41.4         -13.99         -17.04         -103.9          7.782          48.26          116.2           9.84
     1.046              -45.02           5.15          7.295           41.4         -13.98         -17.01         -103.9          7.801          48.09          116.1          9.884
     1.094               -45.0          5.148          7.337          41.39         -13.98         -16.98         -103.9          7.822          47.91          116.1          9.932
     1.141              -44.98          5.145          7.385          41.39         -13.98         -16.95         -103.8          7.844          47.71          116.0          9.986
     1.189              -44.96          5.142          7.437          41.39         -13.98         -16.92         -103.8           7.87          47.48          115.9          10.05
     1.236              -44.94          5.139          7.496          41.39         -13.97         -16.88         -103.7          7.898          47.23          115.8          10.11
     1.284              -44.92          5.136          7.563          41.38         -13.97         -16.84         -103.7          7.931          46.94          115.7          10.19
     1.331              -44.89          5.132          7.638          41.38         -13.97         -16.79         -103.6          7.967          46.62          115.6          10.27
     1.379              -44.86          5.127          7.723          41.38         -13.96         -16.73         -103.5          8.008          46.25          115.5          10.37
     1.426              -44.82          5.122          7.821          41.37         -13.96         -16.67         -103.4          8.055          45.84          115.4          10.48
     1.474              -44.78          5.116          7.933          41.37         -13.96         -16.59         -103.3          8.109          45.36          115.2          10.61
     1.521              -44.74          5.109          8.062          41.36         -13.95         -16.51         -103.2          8.172           44.8          115.0          10.76
     1.569              -44.68          5.101          8.212          41.35         -13.94         -16.41         -103.1          8.244          44.16          114.8          10.93
     1.617              -44.62          5.092          8.387          41.35         -13.93          -16.3         -103.0          8.329           43.4          114.5          11.13
     1.664              -44.54          5.081          8.594          41.34         -13.92         -16.16         -102.8          8.429          42.52          114.2          11.36
     1.712              -44.45          5.068           8.84          41.33         -13.91          -16.0         -102.6          8.548          41.46          113.9          11.64
     1.759              -44.35          5.052          9.134          41.31          -13.9         -15.81         -102.3           8.69           40.2          113.5          11.97
     1.807              -44.22          5.033          9.491           41.3         -13.88         -15.57         -102.0          8.863          38.67          112.9          12.38
     1.854              -44.06           5.01          9.926          41.28         -13.86         -15.29         -101.6          9.073           36.8          112.3          12.87
     1.902              -43.86          4.981          10.46          41.25         -13.84         -14.94         -101.2          9.333          34.49          111.5          13.48
     1.949              -43.62          4.945          11.13          41.22         -13.81          -14.5         -100.6          9.657          31.62          110.6          14.25
     1.997              -43.31            4.9          11.98          41.18         -13.77         -13.95         -99.84          10.07          27.99          109.3          15.21
